<?xml version="1.0" encoding="UTF-8" standalone="no"?><svg xmlns="http://www.w3.org/2000/svg" xmlns:xlink="http://www.w3.org/1999/xlink"><symbol viewBox="0 0 126 126" id="alert-info"><title>Shape</title><path d="M117.18 31.592c-5.595-9.586-13.185-17.176-22.771-22.771C84.821 3.226 74.354.429 63.001.429c-11.352 0-21.822 2.797-31.408 8.392-9.587 5.594-17.177 13.184-22.772 22.771C3.225 41.179.428 51.649.428 63c0 11.352 2.798 21.82 8.392 31.408 5.595 9.585 13.185 17.176 22.772 22.771 9.587 5.595 20.056 8.392 31.408 8.392s21.822-2.797 31.408-8.392c9.586-5.594 17.176-13.185 22.771-22.771 5.594-9.587 8.391-20.057 8.391-31.408 0-11.352-2.797-21.822-8.39-31.408zM52.572 16.071c0-.761.244-1.385.733-1.874.489-.488 1.114-.733 1.874-.733h15.644c.76 0 1.385.245 1.872.733.488.489.734 1.113.734 1.874v13.036c0 .76-.246 1.385-.734 1.873-.487.489-1.112.733-1.872.733H55.179c-.76 0-1.385-.244-1.874-.733-.489-.488-.733-1.113-.733-1.873V16.071zm31.285 86.036c0 .76-.246 1.385-.733 1.872-.487.489-1.112.733-1.874.733h-36.5c-.761 0-1.385-.244-1.874-.733-.489-.488-.733-1.113-.733-1.873V89.07c0-.762.244-1.385.733-1.874.489-.488 1.114-.733 1.874-.733h7.822V60.392H44.75c-.761 0-1.385-.244-1.874-.733-.489-.488-.733-1.113-.733-1.874V44.75c0-.761.244-1.385.733-1.874.489-.489 1.114-.733 1.874-.733h26.073c.76 0 1.385.244 1.872.733.488.489.734 1.113.734 1.874v41.714h7.82c.761 0 1.386.245 1.874.733.487.488.733 1.113.733 1.874v13.036h.001z" fill="#595959" fill-rule="evenodd"/></symbol><symbol viewBox="0 0 16 16" id="app-small"><title>block/ui/icon/app-small</title><defs><rect id="aba" width="16" height="16" rx="2"/><mask id="abb" x="0" y="0" width="16" height="16" fill="#fff"><use xlink:href="#aba"/></mask></defs><g fill="none" fill-rule="evenodd"><use stroke="#111" mask="url(#abb)" stroke-width="2" fill="#FFF" xlink:href="#aba"/><path fill="#046CD5" d="M8 2.5l4.763 2.75v5.5L8 13.5l-4.763-2.75v-5.5z"/></g></symbol><symbol id="chevron-bottom" viewBox="0 0 1068 40" preserveAspectRatio="none"><defs><style>.accls-1{fill:#fff}</style></defs><title>chevron-bottom</title><path class="accls-1" d="M0 40.01L534 0l534 39.99"/></symbol><symbol id="chevron-bottom-blue" viewBox="0 0 1068 40" preserveAspectRatio="none"><defs><style>.adcls-1{fill:#056dd4}</style></defs><title>chevron-bottom-dark</title><path class="adcls-1" d="M1068 0L534 40.01 0 .01"/></symbol><symbol id="chevron-bottom-dark" viewBox="0 0 1068 40" preserveAspectRatio="none"><defs><style>.aecls-1{fill:#1f2c38}</style></defs><title>chevron-bottom-dark</title><path class="aecls-1" d="M1068 0L534 40.01 0 .01"/></symbol><symbol id="chevron-bottom-inverse" viewBox="0 0 1068 40" preserveAspectRatio="none"><defs><style>.afcls-1{fill:#fff}.afcls-2{fill:#5283a8}</style></defs><title>chevron-bottom-inverse</title><path class="afcls-1" d="M534 39.99H0V0M1068 0v39.99H534"/><path class="afcls-2" d="M0 0h1068"/></symbol><symbol id="chevron-bottom-inverse-black" viewBox="0 0 1068 40" preserveAspectRatio="none"><defs><style>.agcls-1{fill:#fff}.agcls-2{fill:#333}</style></defs><title>chevron-bottom-inverse</title><path class="agcls-1" d="M534 39.99H0V0M1068 0v39.99H534"/><path class="agcls-2" d="M0 0h1068"/></symbol><symbol id="chevron-bottom-red" viewBox="0 0 1068 40" preserveAspectRatio="none"><defs><style>.ahcls-1{fill:#cb4f03}</style></defs><title>chevron-bottom-dark</title><path class="ahcls-1" d="M1068 0L534 40.01 0 .01"/></symbol><symbol id="chevron-top" viewBox="0 0 1068 40" preserveAspectRatio="none"><defs><style>.aicls-1{fill:#1f2c38}</style></defs><title>chevron-top</title><path class="aicls-1" d="M0 40.01L534 0l534 39.99"/></symbol><symbol id="chevron-top-blue" viewBox="0 0 1068 40" preserveAspectRatio="none"><defs><style>.ajcls-1{fill:#056dd4}</style></defs><title>chevron-top</title><path class="ajcls-1" d="M0 40.01L534 0l534 39.99"/></symbol><symbol id="chevron-top-cream" viewBox="0 0 1068 40" preserveAspectRatio="none"><defs><style>.akcls-1{fill:#f5f5f3}</style></defs><title>chevron-top</title><path class="akcls-1" d="M0 40.01L534 0l534 39.99"/></symbol><symbol id="chevron-top-inverse" viewBox="0 0 1068 40" preserveAspectRatio="none"><defs><style>.alcls-1{fill:#1f2c38}.alcls-2{fill:#5283a8}</style></defs><title>chevron-top-inverse</title><path class="alcls-1" d="M534 39.99H0V0M1068 0v39.99H534"/><path class="alcls-2" d="M0 0h1068"/></symbol><symbol viewBox="0 0 1068 40" id="chevron-top-inverse-_blue"><title>chevron-top-inverse copy 2</title><g fill="none" fill-rule="evenodd"><path fill="#056DD4" d="M534 39.99H0V0M1068 0v39.99H534"/><path d="M0 0h1068" fill="#5283A8"/></g></symbol><symbol id="chevron-top-inverse-black" viewBox="0 0 1068 40" preserveAspectRatio="none"><defs><style>.ancls-1{fill:#333}.ancls-2{fill:#5283a8}</style></defs><title>chevron-top-inverse</title><path class="ancls-1" d="M534 39.99H0V0M1068 0v39.99H534"/><path class="ancls-2" d="M0 0h1068"/></symbol><symbol id="chevron-top-inverse-blue" viewBox="0 0 1068 40" preserveAspectRatio="none"><defs><style>.aocls-1{fill:#056dd4}.aocls-2{fill:#5283a8}</style></defs><title>chevron-top-inverse</title><path class="aocls-1" d="M534 39.99H0V0M1068 0v39.99H534"/><path class="aocls-2" d="M0 0h1068"/></symbol><symbol id="chevron-top-inverse-red" viewBox="0 0 1068 40" preserveAspectRatio="none"><defs><style>.apcls-1{fill:#cb4f03}.apcls-2{fill:#5283a8}</style></defs><title>chevron-top-inverse</title><path class="apcls-1" d="M534 39.99H0V0M1068 0v39.99H534"/><path class="apcls-2" d="M0 0h1068"/></symbol><symbol id="chevron-top-red" viewBox="0 0 1068 40" preserveAspectRatio="none"><defs><style>.aqcls-1{fill:#cb4f03}</style></defs><title>chevron-top</title><path class="aqcls-1" d="M0 40.01L534 0l534 39.99"/></symbol><symbol viewBox="0 0 32 32" id="close"><title>close</title><g transform="rotate(-45 19.67 7.142)" stroke="#111" fill="none" fill-rule="evenodd" stroke-linecap="square"><path d="M10.81.432V21.19M.432 10.81H21.19"/></g></symbol><symbol viewBox="0 0 32 32" id="close-blue"><title>close-blue</title><g transform="rotate(-45 19.67 7.142)" stroke="#046CD5" fill="none" fill-rule="evenodd" stroke-linecap="square"><path d="M10.81.432V21.19M.432 10.81H21.19"/></g></symbol><symbol id="i-agreement" viewBox="0 0 65.22 36.12"><defs><style>.atcls-1{fill:none;stroke:#fff;stroke-linecap:round;stroke-linejoin:round}</style></defs><title>i-agreement</title><path class="atcls-1" d="M44.68 26.33l-6.02-5.06M39.14 29.4l-4.9-4.02M12.34 18.78c1.75 5 15.82 15.89 15.82 15.89 3.39 2.87 6.46-1.51 3.67-3.87l-2.14-2.08"/><path class="atcls-1" d="M29.69 28.73l5.82 5.05a2.83 2.83 0 1 0 3.85-4.13l1.47 1.24c2.93 2.48 6.78-2.09 3.86-4.56l.23.19c2.91 2.48 6.76-2.09 3.84-4.52l-14.4-11.78s-2.78 1.06-3.85.76c0 0-4.15 6.36-7.18 4.15s0-11.62 8.52-13c0 0 3.84-1.09 13.23 3.75l3.48-1.05"/><path class="atcls-1" transform="rotate(-74.19 8.597 12.519)" d="M-2.39 7.21h21.97v10.61H-2.39z"/><path class="atcls-1" transform="rotate(-15.81 56.618 13.073)" d="M51.31 2.09h10.61v21.97H51.31z"/><path class="atcls-1" d="M16.29 4.81s.49-.9 11.32-1.13M49.69 23.46s2.68.7 4.09-.91"/></symbol><symbol id="i-checked" viewBox="0 0 34.63 34.62"><defs><style>.aucls-1{fill:none;stroke:#fff;stroke-linecap:round;stroke-linejoin:round}</style></defs><title>i-checked</title><circle class="aucls-1" cx="17.31" cy="17.31" r="16.81"/><path class="aucls-1" d="M10.02 17.82l4.9 6.13 10.55-13.2"/></symbol><symbol id="i-compass" viewBox="0 0 41.55 41.55"><defs><style>.avcls-1{fill:none;stroke:#fff;stroke-linecap:round;stroke-linejoin:round}</style></defs><title>i-compass</title><path class="avcls-1" d="M33.83 13.55l7.22 7.22L33.83 28M7.72 28L.5 20.77l7.22-7.22M13.55 7.72L20.77.5 28 7.72M28 33.83l-7.23 7.22-7.22-7.22M.87 20.77h40.18M20.96.68v40.19"/></symbol><symbol id="i-court" viewBox="0 0 30.48 31.07"><defs><style>.awcls-1{fill:none;stroke:#fff;stroke-linecap:round;stroke-linejoin:round}</style></defs><title>i-court</title><path class="awcls-1" d="M.5 9.83L15.25.5l14.73 9.33H.5z"/><ellipse class="awcls-1" cx="15.24" cy="5.81" rx="1.29" ry="1.32"/><path class="awcls-1" d="M.72 30.57h29.04M4.35 12.94h2.07v14.52H4.35zM10.57 12.94h2.07v14.52h-2.07zM17.83 12.94h2.07v14.52h-2.07zM24.05 12.94h2.07v14.52h-2.07z"/></symbol><symbol id="i-double_arrow" viewBox="0 0 47.73 47.73"><defs><style>.axcls-1{fill:none;stroke:#fff;stroke-linecap:round;stroke-linejoin:round}</style></defs><title>i-double_arrow</title><path class="axcls-1" d="M8.56 39.17L39.28 8.59M.5.5h46.73v46.73H.5z"/><path class="axcls-1" d="M8.56 27.93v11.24h11.38M39.27 19.84V8.59H27.89"/></symbol><symbol id="i-download" viewBox="0 0 25 35.5"><defs><style>.aycls-1{fill:none;stroke:#3b97d3;stroke-linecap:round;stroke-linejoin:round}</style></defs><title>i-download</title><path class="aycls-1" d="M12.5 21.5V.5M17.46 16.18l-4.84 4.84-4.84-4.84"/><path class="aycls-1" d="M8 11H.5v24h24V11H17"/></symbol><symbol id="i-export" viewBox="0 0 34.67 34.67"><defs><style>.azcls-1{fill:none;stroke:#fff;stroke-linecap:round;stroke-linejoin:round}</style></defs><title>i-export</title><path class="azcls-1" d="M17.34.5a16.84 16.84 0 1 0 16.83 16.84A16.85 16.85 0 0 0 17.34.5z"/><path class="azcls-1" d="M28.58 29.89c-3.65-1.52-7.5-3.27-7.5-4.37V24a9.32 9.32 0 0 0 2.37-4c1.09-.76.63-2.35.63-3.47v-3.3c0-3.41-2.16-5.74-6.5-5.74s-6.5 2.33-6.5 5.74v3.3A2.35 2.35 0 0 0 11.7 20a9.33 9.33 0 0 0 2.37 4v1.48c-1 1.11-3.77 2.75-7.46 4.28"/></symbol><symbol id="i-locked" viewBox="0 0 46.17 60.53"><defs><style>.bacls-1{fill:none;stroke:#fff;stroke-linecap:round;stroke-linejoin:round}</style></defs><title>i-locked</title><path class="bacls-1" d="M6.14 23A5.56 5.56 0 0 0 .5 28.55L3 54.48A5.57 5.57 0 0 0 8.63 60h28.91a5.61 5.61 0 0 0 5.64-5.6l2.49-25.9A5.54 5.54 0 0 0 40 23H6.14z"/><path class="bacls-1" d="M25.88 49.61h-5.59l-1.05-8.66a3.85 3.85 0 0 1 7.69 0zM11.7 23V11.14C11.7 5.27 17.08.5 23.09.5s11.39 4.77 11.39 10.64V23"/></symbol><symbol id="i-paperwork" viewBox="0 0 30.28 37.59"><defs><style>.bbcls-1{fill:none;stroke:#fff;stroke-linecap:round;stroke-linejoin:round}</style></defs><title>i-paperwork</title><path class="bbcls-1" d="M23.47.5v6.18h6.31"/><path class="bbcls-1" d="M29.78 31a1.12 1.12 0 0 1-1.11 1.11H6.73A1.11 1.11 0 0 1 5.63 31V1.62A1.12 1.12 0 0 1 6.73.5h17.43a.82.82 0 0 1 .63.33l4.65 4.53a1.1 1.1 0 0 1 .33.79V31zM24.31 15.62H11.6M24.31 20.7H11.6M24.31 25.79H11.6M19.38 10.51h-7.95"/><path class="bbcls-1" d="M1.65 5.24A1.15 1.15 0 0 0 .5 6.39v29.55a1.15 1.15 0 0 0 1.15 1.15h24a1.15 1.15 0 0 0 1.15-1.15"/></symbol><symbol id="i-plan" viewBox="0 0 34 35"><defs><style>.bccls-1{fill:none;stroke:#fff;stroke-linecap:round;stroke-linejoin:round}</style></defs><title>i-plan</title><path class="bccls-1" d="M10.5.5h13v13h-13zM.5 28.5h7v6h-7zM13.5 28.5h7v6h-7zM26.5 28.5h7v6h-7zM4.5 26v-5.5h25V26M16.5 26v-9"/></symbol><symbol id="i-power" viewBox="0 0 32.84 36.91"><defs><style>.bdcls-1{fill:none;stroke:#fff;stroke-linecap:round;stroke-linejoin:round}</style></defs><title>i-power</title><ellipse class="bdcls-1" cx="16.36" cy="18.46" rx="1.93" ry="1.95"/><ellipse class="bdcls-1" cx="16.42" cy="18.45" rx="7.98" ry="17.95"/><path class="bdcls-1" d="M12.43 11.48c8.51-5 17.2-5.86 19.4-2s-2.91 11-11.42 16-17.2 5.86-19.4 2 2.91-11.04 11.42-16z"/><path class="bdcls-1" d="M12.43 25.43c-8.51-5-13.62-12.1-11.42-16s10.89-3 19.4 2 13.62 12.1 11.42 16-10.89 2.96-19.4-2z"/></symbol><symbol viewBox="0 0 32 32" id="i-search"><title>i-search</title><defs><rect id="bea" width="32" height="32" rx="2"/></defs><g fill="none" fill-rule="evenodd"><mask id="beb" fill="#fff"><use xlink:href="#bea"/></mask><rect width="32" height="32" rx="2" mask="url(#beb)" stroke="#333" stroke-width="2" fill="#FFF"/><path d="M19.571 14.929c0 2.48-2.019 4.5-4.5 4.5a4.505 4.505 0 0 1-4.5-4.5c0-2.481 2.02-4.5 4.5-4.5 2.481 0 4.5 2.019 4.5 4.5zm5.143 8.357c0-.342-.14-.673-.371-.904l-3.446-3.446a7.055 7.055 0 0 0 1.246-4.007 7.069 7.069 0 0 0-7.072-7.072A7.069 7.069 0 0 0 8 14.93 7.069 7.069 0 0 0 15.071 22a7.055 7.055 0 0 0 4.008-1.246l3.446 3.436c.23.24.562.381.904.381.703 0 1.285-.582 1.285-1.285z" fill="#333"/></g></symbol><symbol viewBox="0 0 32 32" id="i-search-hover"><title>i-search-hover</title><defs><rect id="bfa" width="32" height="32" rx="2"/></defs><g fill="none" fill-rule="evenodd"><mask id="bfb" fill="#fff"><use xlink:href="#bfa"/></mask><rect width="32" height="32" rx="2" mask="url(#bfb)" stroke="#046CD5" stroke-width="2" fill="#FFF"/><path d="M19.571 14.929c0 2.48-2.019 4.5-4.5 4.5a4.505 4.505 0 0 1-4.5-4.5c0-2.481 2.02-4.5 4.5-4.5 2.481 0 4.5 2.019 4.5 4.5zm5.143 8.357c0-.342-.14-.673-.371-.904l-3.446-3.446a7.055 7.055 0 0 0 1.246-4.007 7.069 7.069 0 0 0-7.072-7.072A7.069 7.069 0 0 0 8 14.93 7.069 7.069 0 0 0 15.071 22a7.055 7.055 0 0 0 4.008-1.246l3.446 3.436c.23.24.562.381.904.381.703 0 1.285-.582 1.285-1.285z" fill="#046CD5"/></g></symbol><symbol id="i-shipping" viewBox="0 0 45.89 46.11"><defs><style>.bgcls-1{fill:none;stroke:#fff;stroke-linecap:round;stroke-linejoin:round}</style></defs><title>i-shipping</title><path class="bgcls-1" d="M22.81 40.65l-10.97 4.96V29.9l10.97-4.96v15.71z"/><path class="bgcls-1" d="M11.84 45.61L.5 40.65V24.94l11.34 4.96v15.71z"/><path class="bgcls-1" d="M11.84 20.03L.5 24.94l11.34 4.96 10.97-4.96-10.97-4.91z"/><path class="bgcls-1" d="M34.15 20.03l-11.34 4.91V9.93l11.34-4.74v14.84zM22.81 24.94l-10.97-4.91V5.19l10.97 4.74v15.01z"/><path class="bgcls-1" d="M22.81.5L11.84 5.19l10.97 4.74 11.34-4.74L22.81.5zM45.39 40.65l-11.24 4.96V29.9l11.24-4.96v15.71zM34.15 45.61l-11.34-4.96V24.94l11.34 4.96v15.71z"/><path class="bgcls-1" d="M34.15 20.03l-11.34 4.91 11.34 4.96 11.24-4.96-11.24-4.91z"/></symbol><symbol id="i-user" viewBox="0 0 34.67 34.67"><defs><style>.bhcls-1{fill:none;stroke:#fff;stroke-linecap:round;stroke-linejoin:round}</style></defs><title>i-user</title><path class="bhcls-1" d="M17.34.5a16.84 16.84 0 1 0 16.83 16.84A16.85 16.85 0 0 0 17.34.5z"/><path class="bhcls-1" d="M28.58 29.89c-3.65-1.52-7.5-3.27-7.5-4.37V24a9.32 9.32 0 0 0 2.37-4c1.09-.76.63-2.35.63-3.47v-3.3c0-3.41-2.16-5.74-6.5-5.74s-6.5 2.33-6.5 5.74v3.3A2.35 2.35 0 0 0 11.7 20a9.33 9.33 0 0 0 2.37 4v1.48c-1 1.11-3.77 2.75-7.46 4.28"/></symbol><symbol id="i-user_researched" viewBox="0 0 66.11 61.47"><defs><style>.bicls-1{fill:none;stroke:#fff;stroke-linecap:round;stroke-linejoin:round}</style></defs><title>i-user_researched</title><path class="bicls-1" d="M38.15 38.37a5.93 5.93 0 0 1-2.39-2.47V33A18.43 18.43 0 0 0 40 25.1a4.74 4.74 0 0 0 .89-6.82v-6.49C40.89 5.09 37.21.5 28.79.5c-8.2 0-12.1 4.59-12.1 11.29v6.5a4.74 4.74 0 0 0 .89 6.81 18.42 18.42 0 0 0 4.3 7.9v2.9c-.85 2.76-11 7.2-20.09 10.78A2.07 2.07 0 0 0 .5 48.61v3.06"/><circle class="bicls-1" cx="53.29" cy="48.65" r="12.32" transform="rotate(-45 53.29 48.647)"/><path class="bicls-1" d="M51.17 53.63l7.91-8.45M51.17 53.63L47.5 49.7"/></symbol><symbol id="icon-hex-alt" viewBox="0 0 81 93.5"><style>.bjst0{fill:#cb4f03}.bjst1{fill:#fff}</style><title>icon-hex</title><path class="bjst0" d="M2 69V24.6L40.5 2.3 79 24.6V69L40.5 91.2z"/><path class="bjst1" d="M40.5 4.6L77 25.7v42.2l-36.5 21L4 67.9V25.7L40.5 4.6m0-4.6L0 23.4v46.8l40.5 23.3L81 70.2V23.4L40.5 0z"/></symbol><symbol id="icon-hex-black" viewBox="0 0 81 93.5"><style>.bkst0{fill:#333}.bkst1{fill:#fff}</style><title>icon-hex</title><path class="bkst0" d="M2 69V24.6L40.5 2.3 79 24.6V69L40.5 91.2z"/><path class="bkst1" d="M40.5 4.6L77 25.7v42.2l-36.5 21L4 67.9V25.7L40.5 4.6m0-4.6L0 23.4v46.8l40.5 23.3L81 70.2V23.4L40.5 0z"/></symbol><symbol id="icon-hex-primary" viewBox="0 0 81 93.5"><style>.blst0{fill:#037ce0}.blst1{fill:#fff}</style><title>icon-hex-primary</title><path class="blst0" d="M2 69V24.6L40.5 2.3 79 24.6V69L40.5 91.2z"/><path class="blst1" d="M40.5 4.6L77 25.7v42.2l-36.5 21L4 67.9V25.7L40.5 4.6m0-4.6L0 23.4v46.8l40.5 23.3L81 70.2V23.4L40.5 0z"/></symbol><symbol viewBox="0 0 233 47" id="logo"><title>logo</title><g fill="none" fill-rule="evenodd"><path d="M57.547 18.534a3.71 3.71 0 0 0-1.679-1.276 5.563 5.563 0 0 0-2.024-.403c-.843 0-1.61.153-2.3.46a5.39 5.39 0 0 0-1.782 1.265 5.62 5.62 0 0 0-1.15 1.886 6.671 6.671 0 0 0-.403 2.346c0 .89.13 1.702.391 2.438.26.736.632 1.368 1.115 1.898.484.529 1.062.939 1.737 1.23.675.291 1.434.437 2.277.437.874 0 1.648-.172 2.323-.518a4.54 4.54 0 0 0 1.633-1.368l2.323 1.633a7.443 7.443 0 0 1-2.645 2.104c-1.043.499-2.262.748-3.657.748-1.273 0-2.442-.21-3.508-.633a8.08 8.08 0 0 1-2.748-1.77 8.062 8.062 0 0 1-1.794-2.714c-.43-1.05-.644-2.212-.644-3.485 0-1.303.226-2.48.678-3.53a7.862 7.862 0 0 1 1.864-2.68 8.271 8.271 0 0 1 2.794-1.702c1.073-.399 2.239-.598 3.496-.598.521 0 1.066.05 1.633.15.567.1 1.112.252 1.633.46a7.903 7.903 0 0 1 1.472.77c.46.307.851.675 1.173 1.104l-2.208 1.748zm6.45-3.818h2.898v13.708h6.923V31h-9.82V14.716zm12.477 8.096c0-1.303.218-2.48.655-3.53a7.752 7.752 0 0 1 1.817-2.68 8.045 8.045 0 0 1 2.76-1.702c1.066-.399 2.228-.598 3.485-.598 1.273 0 2.446.2 3.519.598a8.146 8.146 0 0 1 2.783 1.702 7.675 7.675 0 0 1 1.828 2.68c.437 1.05.656 2.227.656 3.53 0 1.273-.219 2.434-.656 3.485a8.035 8.035 0 0 1-1.828 2.713 8.306 8.306 0 0 1-2.783 1.771c-1.073.422-2.246.633-3.52.633-1.256 0-2.418-.21-3.484-.633a8.205 8.205 0 0 1-2.76-1.77 8.12 8.12 0 0 1-1.817-2.714c-.437-1.05-.655-2.212-.655-3.485zm3.15 0c0 .874.135 1.675.403 2.403.269.729.652 1.361 1.15 1.898a5.282 5.282 0 0 0 1.771 1.253c.683.3 1.438.449 2.266.449.828 0 1.587-.15 2.277-.449a5.252 5.252 0 0 0 1.782-1.253 5.597 5.597 0 0 0 1.15-1.898c.269-.728.403-1.529.403-2.403 0-.843-.134-1.625-.403-2.346a5.72 5.72 0 0 0-1.138-1.886 5.267 5.267 0 0 0-1.771-1.265c-.69-.307-1.457-.46-2.3-.46-.843 0-1.606.153-2.289.46a5.297 5.297 0 0 0-1.76 1.265 5.72 5.72 0 0 0-1.138 1.886 6.671 6.671 0 0 0-.402 2.346zm32.426 2.208c0 .981-.169 1.867-.506 2.657a5.956 5.956 0 0 1-1.38 2.012 6.07 6.07 0 0 1-2.07 1.276 7.344 7.344 0 0 1-2.599.449c-.935 0-1.802-.15-2.599-.449a6.196 6.196 0 0 1-2.081-1.276 5.745 5.745 0 0 1-1.38-2.012c-.33-.79-.495-1.676-.495-2.657V14.716h2.898v10.189c0 .475.061.947.184 1.415.123.467.326.885.61 1.253.283.368.659.667 1.127.897.467.23 1.046.345 1.736.345s1.269-.115 1.737-.345c.467-.23.843-.529 1.127-.897.283-.368.486-.786.61-1.253.122-.468.183-.94.183-1.415V14.716h2.898V25.02zm5.745-10.304h5.773c1.058 0 2.124.138 3.197.414a8.278 8.278 0 0 1 2.898 1.368c.86.637 1.557 1.472 2.093 2.508.537 1.035.805 2.319.805 3.852 0 1.426-.268 2.653-.805 3.68-.536 1.027-1.234 1.87-2.093 2.53a8.75 8.75 0 0 1-2.898 1.46 11.33 11.33 0 0 1-3.197.472h-5.773V14.716zm5.313 13.754c.752 0 1.503-.088 2.254-.264a5.875 5.875 0 0 0 2.036-.898c.606-.421 1.1-.992 1.483-1.713.384-.72.575-1.633.575-2.737 0-1.165-.191-2.116-.575-2.852-.383-.736-.877-1.311-1.483-1.725a5.524 5.524 0 0 0-2.036-.851 11.246 11.246 0 0 0-2.254-.23h-2.415v11.27h2.415zm12.807.92c0-.49.18-.912.54-1.265.36-.353.794-.529 1.3-.529.49 0 .92.169 1.288.506.368.337.552.751.552 1.242 0 .49-.18.912-.54 1.265-.361.353-.794.529-1.3.529-.246 0-.48-.046-.702-.138a2 2 0 0 1-.586-.368 1.71 1.71 0 0 1-.403-.552c-.1-.215-.15-.445-.15-.69zm21.984.759c-.828.399-1.737.71-2.726.931-.989.223-2.127.334-3.415.334-1.319 0-2.523-.21-3.611-.633-1.089-.421-2.024-1.011-2.806-1.77a8.035 8.035 0 0 1-1.829-2.714c-.437-1.05-.655-2.212-.655-3.485 0-1.303.226-2.48.678-3.53a7.862 7.862 0 0 1 1.863-2.68 8.271 8.271 0 0 1 2.795-1.702c1.073-.399 2.238-.598 3.496-.598 1.303 0 2.495.188 3.576.564 1.081.375 1.951.87 2.61 1.483l-2 2.162c-.414-.46-.993-.851-1.737-1.173a6.04 6.04 0 0 0-2.426-.483c-.859 0-1.637.153-2.335.46a5.238 5.238 0 0 0-1.782 1.265 5.72 5.72 0 0 0-1.139 1.886 6.671 6.671 0 0 0-.402 2.346c0 .874.134 1.675.402 2.403.268.729.652 1.361 1.15 1.898a5.174 5.174 0 0 0 1.817 1.253c.713.3 1.522.449 2.427.449 1.242 0 2.323-.192 3.243-.575V24.1h-3.427v-2.392h6.233v8.441zm4.637-7.337c0-1.303.218-2.48.655-3.53a7.752 7.752 0 0 1 1.817-2.68 8.045 8.045 0 0 1 2.76-1.702c1.066-.399 2.227-.598 3.485-.598 1.272 0 2.445.2 3.519.598a8.146 8.146 0 0 1 2.783 1.702 7.675 7.675 0 0 1 1.828 2.68c.437 1.05.656 2.227.656 3.53 0 1.273-.219 2.434-.656 3.485a8.035 8.035 0 0 1-1.828 2.713 8.306 8.306 0 0 1-2.783 1.771c-1.074.422-2.247.633-3.52.633-1.257 0-2.418-.21-3.484-.633a8.205 8.205 0 0 1-2.76-1.77 8.12 8.12 0 0 1-1.817-2.714c-.437-1.05-.655-2.212-.655-3.485zm3.15 0c0 .874.135 1.675.403 2.403.268.729.652 1.361 1.15 1.898a5.282 5.282 0 0 0 1.771 1.253c.682.3 1.438.449 2.266.449.828 0 1.587-.15 2.277-.449a5.252 5.252 0 0 0 1.782-1.253 5.597 5.597 0 0 0 1.15-1.898c.268-.728.403-1.529.403-2.403 0-.843-.135-1.625-.403-2.346a5.72 5.72 0 0 0-1.138-1.886 5.267 5.267 0 0 0-1.771-1.265c-.69-.307-1.457-.46-2.3-.46-.844 0-1.607.153-2.289.46a5.297 5.297 0 0 0-1.76 1.265 5.72 5.72 0 0 0-1.138 1.886 6.671 6.671 0 0 0-.402 2.346zm17.154-8.096h3.243l4.485 12.535h.092l4.53-12.535h3.129L191.787 31h-2.507l-6.44-16.284z" fill="#333"/><g transform="translate(0 1)"><path fill="#046CD5" d="M17 0L0 12.377l6.93 5.33h7.557l2.507-7.727 2.508 7.727h7.58L34 12.377z"/><path fill="#333" d="M27.082 17.704h.004l-6.034 4.774 2.508 7.725-6.566-4.775-6.566 4.775 2.508-7.725-6.007-4.774L0 12.376v19.645l17 12.355 17-12.355V12.376z"/></g></g></symbol><symbol viewBox="0 0 16 16" id="org-small"><title>block/ui/icon/org-small</title><defs><rect id="bna" width="16" height="16" rx="2"/><mask id="bnb" x="0" y="0" width="16" height="16" fill="#fff"><use xlink:href="#bna"/></mask><circle id="bnc" cx="5.5" cy="5.5" r="5.5"/></defs><g fill="none" fill-rule="evenodd"><use mask="url(#bnb)" xlink:href="#bna" stroke="#111" stroke-width="2" fill="#FFF"/><g transform="translate(2.5 2.5)"><mask id="bnd" fill="#fff"><use xlink:href="#bnc"/></mask><path fill="#2A3946" mask="url(#bnd)" d="M11.5 2.5L14.098 4v3L11.5 8.5 8.902 7V4zM-.5 2.5L2.098 4v3L-.5 8.5-3.098 7V4zM2.5-2.5L5.098-1v3L2.5 3.5-.098 2v-3zM8.5-2.5L11.098-1v3L8.5 3.5 5.902 2v-3zM2.5 7.5L5.098 9v3L2.5 13.5-.098 12V9zM8.5 7.5L11.098 9v3L8.5 13.5 5.902 12V9z"/></g></g></symbol><symbol viewBox="0 0 17 18" id="search"><title>search</title><path d="M11.571 7.929c0 2.48-2.019 4.5-4.5 4.5a4.505 4.505 0 0 1-4.5-4.5c0-2.481 2.02-4.5 4.5-4.5 2.481 0 4.5 2.019 4.5 4.5zm5.143 8.357c0-.342-.14-.673-.371-.904l-3.446-3.446a7.055 7.055 0 0 0 1.246-4.007A7.069 7.069 0 0 0 7.07.857 7.069 7.069 0 0 0 0 7.93 7.069 7.069 0 0 0 7.071 15a7.055 7.055 0 0 0 4.008-1.246l3.446 3.436c.23.24.562.381.904.381.703 0 1.285-.582 1.285-1.285z" fill="#046CD5" fill-rule="evenodd"/></symbol><symbol viewBox="0 0 16 16" id="space-small"><title>block/ui/icon/space-small</title><defs><rect id="bpa" width="16" height="16" rx="2"/><mask id="bpb" x="0" y="0" width="16" height="16" fill="#fff"><use xlink:href="#bpa"/></mask></defs><g fill="none" fill-rule="evenodd"><use stroke="#111" mask="url(#bpb)" stroke-width="2" fill="#FFF" xlink:href="#bpa"/><path fill="#046CD5" d="M8.098 3l2.098 1.211v2.423L8.098 7.845 6 6.634V4.211zM5.098 8l2.098 1.211v2.423l-2.098 1.211L3 11.634V9.211zM11.098 8l2.098 1.211v2.423l-2.098 1.211L9 11.634V9.211z"/></g></symbol></svg>